<?xml version="1.0" standalone="yes"?><svg xmlns="http://www.w3.org/2000/svg" aria-hidden="true" focusable="false" data-prefix="fas" data-icon="cogs" class="svg-inline--fa fa-cogs fa-w-20" role="img" viewBox="0 0 512 512" style="zoom: 1;">
<path fill="#c5c5c5" d="M464,32 H48 C21.49,32 0,53.49 0,80 v352 c0,26.51 21.49,48 48,48 h416 c26.51,0 48,-21.49 48,-48 V80 c0,-26.51 -21.49,-48 -48,-48 m-6,400 H54 a14,14 0 0 1 -14,-14 V86 a14,14 0 0 1 14,-14 h404 a14,14 0 0 1 14,14 v332 a14,14 0 0 1 -14,14 m-42,-102 v24 "></path>

<rect x="200" y="155" width="170" height="25" fill="#c5c5c5"/>
<rect x="140" y="220" width="25" height="100" fill="#c5c5c5"/>
<rect x="140" y="315" width="170" height="25" fill="#c5c5c5"/>
<rect x="350" y="155" width="25" height="125" fill="#c5c5c5"/>

<rect x="100" y="120" width="100" height="100" rx="15" fill="#ccccff" stroke-width="2" stroke="#c5c5c5"/>
<rect x="310" y="280" width="100" height="100" rx="15" fill="#ccccff" stroke-width="2" stroke="#c5c5c5"/>

</svg>