<?xml version="1.0" standalone="yes"?><svg xmlns="http://www.w3.org/2000/svg" viewBox="0 0 448 512" style="zoom: 1;"><!-- Font Awesome Free 5.15.3 by @fontawesome - https://fontawesome.com License - https://fontawesome.com/license/free (Icons: CC BY 4.0, Fonts: SIL OFL 1.1, Code: MIT License) --><path fill="#eeeeee" d="M224.3,273 m192,-34 l-136,-136 c-9.4,-9.4 -24.6,-9.4 -33.9,0 l-22.6,22.6 c-9.4,9.4 -9.4,24.6 0,33.9 l96.4,96.4 l-96.4,96.4 c-9.4,9.4 -9.4,24.6 0,33.9 l22.6,22.6 c9.4,9.4 24.6,9.4 33.9,0 l136,-136 c9.4,-9.2 9.4,-24.4 0,-33.8 "></path>
<!--
<circle stroke="#eeeeee" cx="125.433159px" id="circle1" stroke-width="25px" cy="255.543701px" fill="#ffffff" r="110.431351px" transform=""></circle>
<line  stroke="#313131" y1="220.862778px" id="line1" x1="77.975037px" stroke-width="20px" y2="261.932251px" x2="124.5205px" transform=""></line>
<line  stroke="#313131" y1="259.194275px" id="line2" x1="129.996429px" stroke-width="20px" y2="198.959015px" x2="189.319107px" transform=""></line>
<circle stroke="#313131" cx="127.258476px" id="circle2" stroke-width="3px" cy="261.019592px" fill="#ffffff" r="12.777187px" transform=""></circle>
-->
</svg>