<?xml version="1.0" encoding="utf-8"?>
<!-- Generator: Adobe Illustrator 24.1.2, SVG Export Plug-In . SVG Version: 6.00 Build 0)  -->
<svg version="1.1" id="Layer_1" xmlns="http://www.w3.org/2000/svg" xmlns:xlink="http://www.w3.org/1999/xlink" x="0px" y="0px"
	 viewBox="0 0 16 16" style="enable-background:new 0 0 16 16;" xml:space="preserve">
	 
<style type="text/css">
	.st0{fill-rule:evenodd;clip-rule:evenodd;fill:#424242;}
	.st1{fill-rule:evenodd;clip-rule:evenodd;fill:#27A15B;}
	.st2{fill:none;stroke:#424242;stroke-width:0.75;stroke-linecap:round;stroke-linejoin:round;stroke-miterlimit:10;}
</style>

<path class="st0" d="M1.5,2L1,2.5v3.7C1.3,6,1.7,5.8,2,5.6V3h4.3l0.9,0.9L7.5,4H14v1H7.5L7.1,5.1L6.8,5.5C7.1,5.6,7.4,5.8,7.7,6l0,0
	H14v1.5h0v4h0V13H9.4c-0.2,0.4-0.4,0.7-0.7,1h5.7l0.5-0.5V9l0,0V3.5L14.5,3H7.7L6.9,2.1L6.5,2H1.5z"/>
	
	
<path fill="#cccccc" d="M332.1,391 l-8.2,14.3 c-3,5.3 -9.4,7.5 -15.1,5.4 c-11.8,-4.4 -22.6,-10.7 -32.1,-18.6 c-4.6,-3.8 -5.8,-10.5 -2.8,-15.7 l8.2,-14.3 c-6.9,-8 -12.3,-17.3 -15.9,-27.4 h-16.5 c-6,0 -11.2,-4.3 -12.2,-10.3 c-2,-12 -2.1,-24.6 0,-37.1 c1,-6 6.2,-10.4 12.2,-10.4 h16.5 c3.6,-10.1 9,-19.4 15.9,-27.4 l-8.2,-14.3 c-3,-5.2 -1.9,-11.9 2.8,-15.7 c9.5,-7.9 20.4,-14.2 32.1,-18.6 c5.7,-2.1 12.1,.1 15.1,5.4 l8.2,14.3 c10.5,-1.9 21.2,-1.9 31.7,0 L372,206.3 c3,-5.3 9.4,-7.5 15.1,-5.4 c11.8,4.4 22.6,10.7 32.1,18.6 c4.6,3.8 5.8,10.5 2.8,15.7 l-8.2,14.3 c6.9,8 12.3,17.3 15.9,27.4 h16.5 c6,0 11.2,4.3 12.2,10.3 c2,12 2.1,24.6 0,37.1 c-1,6 -6.2,10.4 -12.2,10.4 h-16.5 c-3.6,10.1 -9,19.4 -15.9,27.4 l8.2,14.3 c3,5.2 1.9,11.9 -2.8,15.7 c-9.5,7.9 -20.4,14.2 -32.1,18.6 c-5.7,2.1 -12.1,-.1 -15.1,-5.4 l-8.2,-14.3 c-10.4,1.9 -21.2,1.9 -31.7,0 m-10.5,-58.8 c38.5,29.6 82.4,-14.3 52.8,-52.8 c-38.5,-29.7 -82.4,14.3 -52.8,52.8 M501.6,431 "></path>
	
</svg>
