<?xml version="1.0" standalone="yes"?><svg xmlns="http://www.w3.org/2000/svg" aria-hidden="true" focusable="false" data-prefix="fas" data-icon="cogs" class="svg-inline--fa fa-cogs fa-w-20" role="img" viewBox="0 0 512 512" style="zoom: 1;"><path fill="#c5c5c5" d="M332.1,391 l-8.2,14.3 c-3,5.3 -9.4,7.5 -15.1,5.4 c-11.8,-4.4 -22.6,-10.7 -32.1,-18.6 c-4.6,-3.8 -5.8,-10.5 -2.8,-15.7 l8.2,-14.3 c-6.9,-8 -12.3,-17.3 -15.9,-27.4 h-16.5 c-6,0 -11.2,-4.3 -12.2,-10.3 c-2,-12 -2.1,-24.6 0,-37.1 c1,-6 6.2,-10.4 12.2,-10.4 h16.5 c3.6,-10.1 9,-19.4 15.9,-27.4 l-8.2,-14.3 c-3,-5.2 -1.9,-11.9 2.8,-15.7 c9.5,-7.9 20.4,-14.2 32.1,-18.6 c5.7,-2.1 12.1,.1 15.1,5.4 l8.2,14.3 c10.5,-1.9 21.2,-1.9 31.7,0 L372,206.3 c3,-5.3 9.4,-7.5 15.1,-5.4 c11.8,4.4 22.6,10.7 32.1,18.6 c4.6,3.8 5.8,10.5 2.8,15.7 l-8.2,14.3 c6.9,8 12.3,17.3 15.9,27.4 h16.5 c6,0 11.2,4.3 12.2,10.3 c2,12 2.1,24.6 0,37.1 c-1,6 -6.2,10.4 -12.2,10.4 h-16.5 c-3.6,10.1 -9,19.4 -15.9,27.4 l8.2,14.3 c3,5.2 1.9,11.9 -2.8,15.7 c-9.5,7.9 -20.4,14.2 -32.1,18.6 c-5.7,2.1 -12.1,-.1 -15.1,-5.4 l-8.2,-14.3 c-10.4,1.9 -21.2,1.9 -31.7,0 m-10.5,-58.8 c38.5,29.6 82.4,-14.3 52.8,-52.8 c-38.5,-29.7 -82.4,14.3 -52.8,52.8 M501.6,431"></path><path fill="#c5c5c5" d="M152.1,291 l-8.2,14.3 c-3,5.3 -9.4,7.5 -15.1,5.4 c-11.8,-4.4 -22.6,-10.7 -32.1,-18.6 c-4.6,-3.8 -5.8,-10.5 -2.8,-15.7 l8.2,-14.3 c-6.9,-8 -12.3,-17.3 -15.9,-27.4 h-16.5 c-6,0 -11.2,-4.3 -12.2,-10.3 c-2,-12 -2.1,-24.6 0,-37.1 c1,-6 6.2,-10.4 12.2,-10.4 h16.5 c3.6,-10.1 9,-19.4 15.9,-27.4 l-8.2,-14.3 c-3,-5.2 -1.9,-11.9 2.8,-15.7 c9.5,-7.9 20.4,-14.2 32.1,-18.6 c5.7,-2.1 12.1,.1 15.1,5.4 l8.2,14.3 c10.5,-1.9 21.2,-1.9 31.7,0 L182,106.3 c3,-5.3 9.4,-7.5 15.1,-5.4 c11.8,4.4 22.6,10.7 32.1,18.6 c4.6,3.8 5.8,10.5 2.8,15.7 l-8.2,14.3 c6.9,8 12.3,17.3 15.9,27.4 h16.5 c6,0 11.2,4.3 12.2,10.3 c2,12 2.1,24.6 0,37.1 c-1,6 -6.2,10.4 -12.2,10.4 h-16.5 c-3.6,10.1 -9,19.4 -15.9,27.4 l8.2,14.3 c3,5.2 1.9,11.9 -2.8,15.7 c-9.5,7.9 -20.4,14.2 -32.1,18.6 c-5.7,2.1 -12.1,-.1 -15.1,-5.4 l-8.2,-14.3 c-10.4,1.9 -21.2,1.9 -31.7,0 m-10.5,-58.8 c38.5,29.6 82.4,-14.3 52.8,-52.8 c-38.5,-29.7 -82.4,14.3 -52.8,52.8 M501.6,431"></path><path fill="#c5c5c5" d="M464,32 H48 C21.49,32 0,53.49 0,80 v352 c0,26.51 21.49,48 48,48 h416 c26.51,0 48,-21.49 48,-48 V80 c0,-26.51 -21.49,-48 -48,-48 m-6,400 H54 a14,14 0 0 1 -14,-14 V86 a14,14 0 0 1 14,-14 h404 a14,14 0 0 1 14,14 v332 a14,14 0 0 1 -14,14 m-42,-102 v24 "></path></svg>