<?xml version="1.0" standalone="yes"?><svg xmlns="http://www.w3.org/2000/svg" aria-hidden="true" focusable="false" data-prefix="fas" data-icon="cogs" class="svg-inline--fa fa-cogs fa-w-20" role="img" viewBox="0 0 512 512" style="zoom: 1;">
<path fill="#313131" d="M464,32 H48 C21.49,32 0,53.49 0,80 v352 c0,26.51 21.49,48 48,48 h416 c26.51,0 48,-21.49 48,-48 V80 c0,-26.51 -21.49,-48 -48,-48 m-6,400 H54 a14,14 0 0 1 -14,-14 V86 a14,14 0 0 1 14,-14 h404 a14,14 0 0 1 14,14 v332 a14,14 0 0 1 -14,14 m-42,-102 v24 "></path>
</svg>